<?xml version="1.0" encoding="UTF-8"?>
<svg id="Layer_1" data-name="Layer 1" xmlns="http://www.w3.org/2000/svg" viewBox="0 0 612 525.62">
  <defs>
    <style>
      .cls-1 {
        fill: none;
      }

      .cls-2 {
        fill: #008390;
      }

      .cls-3 {
        fill: #ef9d20;
      }

      .cls-4 {
        fill: #fff;
      }
    </style>
  </defs>
  <rect class="cls-4" x=".4" width="612" height="525.62"/>
  <g>
    <g>
      <path class="cls-2" d="m213.54,346.45c1.33.88,2.8,1.32,4.4,1.32v1.48h-13.17v-2.92c-2.61,1.93-5.56,2.89-8.86,2.89-2.44,0-4.73-.59-6.88-1.78-2.14-1.19-4.01-2.92-5.58-5.2-3.45-4.98-5.17-11.71-5.17-20.18,0-4.29.46-8.16,1.38-11.63.92-3.47,2.19-6.31,3.8-8.54,1.61-2.23,3.48-3.93,5.6-5.12,2.12-1.19,4.42-1.78,6.88-1.78l8.92-.03,2.15,9.38-1.42.34c-.51-2.17-1.73-4.06-3.65-5.66-1.92-1.6-3.97-2.45-6.17-2.55-1.11.04-2.11.43-3,1.15-.89.73-1.63,1.64-2.22,2.72-.58,1.09-1.1,2.41-1.54,3.95-.44,1.55-.77,3.04-1,4.46-.23,1.43-.41,2.99-.54,4.69-.13,1.7-.22,3.09-.26,4.17-.04,1.08-.06,2.19-.06,3.34v1.11c0,.86,0,1.6.02,2.2.01.61.04,1.6.09,2.98.05,1.38.12,2.61.22,3.68.09,1.07.24,2.34.45,3.83.2,1.49.45,2.79.74,3.91.29,1.12.66,2.28,1.11,3.48.45,1.2.96,2.18,1.52,2.95.56.77,1.25,1.41,2.05,1.91.8.5,1.67.75,2.62.75s1.89-.25,2.71-.75c.82-.5,1.52-1.22,2.09-2.14.57-.92,1.09-1.93,1.54-3.03.45-1.1.82-2.35,1.09-3.77s.51-2.75.69-4c.18-1.25.32-2.6.42-4.05.09-1.45.16-2.64.2-3.58.04-.94.06-1.93.06-2.95v-.68h-8.8v-1.45h17.6c-.02,12-.03,20.37-.03,25.11Z"/>
      <path class="cls-2" d="m245.36,347.77c2.24,0,4.35-.82,6.35-2.45s3.26-3.56,3.77-5.8l1.45.34-2.18,9.38h-33.05v-1.54c1.6,0,3.07-.44,4.4-1.32v-48.65c-1.33-.88-2.8-1.32-4.4-1.32v-1.51h33.05l2.18,9.38-1.45.34c-.51-2.24-1.77-4.17-3.77-5.8-2-1.63-4.12-2.45-6.35-2.45h-10.49v24.58h5.57c.72,0,1.46-.08,2.22-.25,1.58-.57,2.86-1.55,3.85-2.94.98-1.38,1.48-2.94,1.48-4.66h1.48v17.14h-1.48c0-1.72-.49-3.28-1.48-4.66-.98-1.38-2.27-2.36-3.85-2.94-.76-.16-1.5-.25-2.22-.25h-5.57v25.35h10.49Z"/>
      <path class="cls-2" d="m278.34,294.97c2.44,0,4.73.6,6.86,1.78,2.13,1.19,4,2.9,5.6,5.12,1.6,2.23,2.86,5.07,3.78,8.54.92,3.47,1.38,7.34,1.38,11.63,0,3.63-.3,6.95-.91,9.95-.61,3.01-1.44,5.56-2.51,7.66-1.07,2.1-2.34,3.88-3.82,5.32-1.48,1.45-3.09,2.51-4.85,3.18-1.75.68-3.62,1.02-5.58,1.02-2.44,0-4.73-.6-6.86-1.8-2.13-1.2-4-2.92-5.6-5.15-1.6-2.24-2.86-5.09-3.78-8.55-.92-3.47-1.38-7.34-1.38-11.63s.46-8.16,1.38-11.63c.92-3.47,2.19-6.31,3.8-8.54,1.61-2.23,3.48-3.93,5.6-5.12,2.12-1.19,4.42-1.78,6.88-1.78Zm-2.58,52.01c.8.5,1.67.75,2.62.75s1.82-.25,2.62-.75c.8-.5,1.48-1.14,2.05-1.91.56-.77,1.07-1.75,1.52-2.95.45-1.2.82-2.36,1.11-3.48.29-1.12.53-2.42.74-3.91.2-1.49.35-2.76.45-3.83.09-1.07.16-2.29.22-3.68.05-1.38.08-2.38.09-2.98.01-.6.02-1.34.02-2.2s0-1.57-.02-2.18c-.01-.62-.04-1.61-.09-2.98-.05-1.37-.12-2.59-.22-3.66-.09-1.07-.24-2.34-.45-3.83-.21-1.49-.45-2.79-.74-3.91-.29-1.12-.66-2.27-1.11-3.46-.45-1.19-.96-2.17-1.52-2.94-.56-.77-1.25-1.4-2.05-1.91-.8-.5-1.67-.75-2.62-.75-.88,0-1.7.22-2.46.65-.76.43-1.42,1-1.97,1.71s-1.05,1.58-1.49,2.62c-.44,1.04-.81,2.09-1.11,3.17-.3,1.08-.56,2.27-.78,3.58-.23,1.31-.4,2.52-.52,3.63s-.22,2.29-.29,3.55c-.07,1.26-.12,2.3-.14,3.11-.02.81-.03,1.65-.03,2.51v1.11c0,.86,0,1.6.02,2.2.01.61.04,1.6.09,2.98.05,1.38.12,2.61.22,3.68.09,1.07.24,2.34.45,3.83.2,1.49.45,2.79.74,3.91.29,1.12.66,2.28,1.11,3.48.45,1.2.96,2.18,1.52,2.95.56.77,1.25,1.41,2.05,1.91Zm-6.18-24.94v2.77-3.38.62Z"/>
      <path class="cls-2" d="m333.17,344.97c1.6,1.87,3.63,2.8,6.09,2.8v1.48h-17.57v-1.48c.92,0,1.85-.16,2.77-.49l-11.57-20.65v22.62h-13.17v-1.48c1.6,0,3.07-.44,4.4-1.32v-48.74c-1.33-.88-2.8-1.32-4.4-1.32v-1.48l21.91-.03c3.67,0,6.8,1.3,9.38,3.89,2.58,2.6,3.88,5.72,3.88,9.37s-1.29,6.77-3.88,9.37c-2.58,2.6-5.71,3.89-9.38,3.89h-1.6c8.74,15.69,13.12,23.55,13.14,23.57Zm-20.28-25.02h1.45c3.26,0,6.04-1.15,8.34-3.46,2.3-2.31,3.45-5.09,3.45-8.35s-1.15-6.04-3.45-8.34c-2.3-2.3-5.08-3.45-8.34-3.45h-1.45v23.6Z"/>
      <path class="cls-2" d="m378.34,346.45c1.33.88,2.8,1.32,4.4,1.32v1.48h-13.17v-2.92c-2.61,1.93-5.56,2.89-8.86,2.89-2.44,0-4.73-.59-6.88-1.78-2.14-1.19-4.01-2.92-5.58-5.2-3.45-4.98-5.17-11.71-5.17-20.18,0-4.29.46-8.16,1.38-11.63.92-3.47,2.19-6.31,3.8-8.54,1.61-2.23,3.48-3.93,5.6-5.12,2.12-1.19,4.42-1.78,6.88-1.78l8.92-.03,2.15,9.38-1.42.34c-.51-2.17-1.73-4.06-3.65-5.66-1.92-1.6-3.97-2.45-6.17-2.55-1.11.04-2.11.43-3,1.15-.89.73-1.63,1.64-2.22,2.72-.58,1.09-1.1,2.41-1.54,3.95-.44,1.55-.77,3.04-1,4.46-.23,1.43-.41,2.99-.54,4.69-.13,1.7-.22,3.09-.26,4.17-.04,1.08-.06,2.19-.06,3.34v1.11c0,.86,0,1.6.02,2.2.01.61.04,1.6.09,2.98.05,1.38.12,2.61.22,3.68.09,1.07.24,2.34.45,3.83.2,1.49.45,2.79.74,3.91.29,1.12.66,2.28,1.11,3.48.45,1.2.96,2.18,1.52,2.95.56.77,1.25,1.41,2.05,1.91.8.5,1.67.75,2.62.75s1.89-.25,2.71-.75c.82-.5,1.52-1.22,2.09-2.14.57-.92,1.09-1.93,1.54-3.03.45-1.1.82-2.35,1.09-3.77s.51-2.75.69-4c.18-1.25.32-2.6.42-4.05.09-1.45.16-2.64.2-3.58.04-.94.06-1.93.06-2.95v-.68h-8.8v-1.45h17.6c-.02,12-.03,20.37-.03,25.11Z"/>
      <path class="cls-2" d="m399.66,297.71v48.77c1.33.88,2.8,1.32,4.4,1.32v1.45h-17.57v-1.45c1.6,0,3.07-.44,4.4-1.32v-48.77c-1.33-.88-2.8-1.32-4.4-1.32v-1.48h17.57v1.48c-1.6,0-3.07.44-4.4,1.32Z"/>
      <path class="cls-2" d="m447.35,346.48c1.31.86,2.78,1.29,4.4,1.29v1.48h-10.28v-1.48c1.62,0,3.09-.43,4.4-1.29l-2.49-9.69h-19.2c-.29,1.17-.61,2.5-.97,4-.36,1.5-.66,2.74-.89,3.74-.24,1-.43,1.78-.57,2.35,1.13.6,2.35.89,3.66.89v1.48h-17.57v-1.48c1.93,0,3.62-.59,5.08-1.78l11.75-48.52c-1.27-.72-2.62-1.08-4.03-1.08v-1.48h13.48c7.59,29.58,12,46.77,13.23,51.57Zm-22.8-11.17h18.43l-9.51-36.92c-.78,3.22-3.75,15.53-8.92,36.92Z"/>
    </g>
    <g>
      <path class="cls-2" d="m363.48,245.45l8.23,4.57-5.6,9.54-8.23-4.57,5.6-9.54Z"/>
      <path class="cls-2" d="m343.96,117.84c0-4.34-3.25-6.69-7.05-6.69-1.99,0-3.98.54-5.78,1.99-1.99-7.77,3.07-12.11,8.49-12.11,5.06,0,10.3,3.61,10.3,11.57,0,5.78-3.8,12.83-15,19.88,6.69-5.78,9.04-11.02,9.04-14.64Z"/>
      <path class="cls-2" d="m274.04,205.21c-3.93.37-7.86.19-7.86,5.24,0,19.84,84.96-8.8,84.96,34.43,0,24.33-25.83,34.25-50.53,34.25s-42.29-14.41-42.29-28.45c0-5.43,2.43-10.67,7.67-15.16-4.3,4.49-6.36,9.54-6.36,14.78,0,12.73,12.54,25.08,35.74,25.08s40.8-9.17,40.8-26.39-18.71-16.47-37.62-16.47-37.62-.37-37.62-18.9c0-5.99,7.11-10.11,13.1-8.42Z"/>
      <path class="cls-2" d="m304.76,126.52c-31.03,0-46.43,19.9-46.43,41.08s15.19,41.08,46.43,41.08,46.22-19.9,46.22-41.08-14.98-41.08-46.22-41.08Zm20.07,43.57c-1.19,14.97-11.11,26.4-22.16,25.52-11.05-.88-19.04-13.72-17.85-28.7,1.19-14.97,11.11-26.4,22.16-25.52,11.05.88,19.04,13.72,17.85,28.7Z"/>
    </g>
    <g>
      <path class="cls-1" d="m313.07,185.06c1.14-.93,2.1-2.01,2.92-3.13-.92,1.17-1.9,2.22-2.92,3.13Z"/>
      <path class="cls-3" d="m327.73,238.73c-2-7.43-3.56-12.98-4.67-16.65-.01-.04-.02-.08-.03-.12-1.75-7.24-1.85-16.41-.33-27.53,3-22.09,4.53-33.77,4.61-35.05.04-.48-.61-1.81-1.94-3.97-.53-.87-1.56-2.11-2.62-3.29-1.58-1.76-3.25-3.39-3.47-3.41-.18-.05.4,1.24,1.04,3.05,1.01,2.83,1.34,5.85.99,8.83-1.27,10.66-2.72,17.29-4.35,19.9-.3.48-.63.97-.98,1.45-.82,1.12-1.78,2.2-2.92,3.13-3.97,3.58-8.55,5.17-12.88,3.92-8.56-2.46-12.44-15.1-8.66-28.22,2.89-10.05,9.44-17.48,16.19-19.29-1.89-.26-4.46-.38-8.03,1.06-.8.32-1.62.75-2.52,1.26-5.06,2.9-8.03,8.04-8.19,8.27-.39.57-2.15,3.78-2.82,5.74-.82,2.36-1.05,2.56-1.46,4.63-.17.86-.21,1.07-.54,2.85-.97,5.18-.38,9.21.8,15.02,1.16,5.73,5.8,12.69,10.98,15.93,2.59,1.62,6.09,2.36,10.67,1.71,1.94-.28,3.65-.87,5.14-1.6,1.51-.73,3.24.46,3.05,2.13-.77,6.84-.18,14.27,1.78,22.29,1.8,6.81,3.29,12.33,4.45,16.54.01.04.02.08.03.12,1.71,7.9,1.6,13.4-.34,16.49-.86,1.37-2.06,2.3-3.61,2.79-2.62.84-5.34.37-8.17-1.39-3.06-1.91-5.75-4.91-8.05-8.97-1.39-2.37-2.5-4.5-3.32-6.39-.06-.14-.13-.28-.23-.4-.24-.31-.49-.42-.76-.33-.33.11-.38.55-.15,1.33.76,3.08,2.35,6.35,4.77,9.82,2.64,3.74,5.54,6.6,8.69,8.57,4.8,3,9.31,3.28,13.52.85,1.67-.99,2.98-2.26,3.95-3.81,2.25-3.6,2.37-9.35.37-17.26Z"/>
    </g>
  </g>
</svg>